<?xml version="1.0" encoding="utf-8"?>
<!-- Generator: Adobe Illustrator 16.0.0, SVG Export Plug-In . SVG Version: 6.00 Build 0)  -->
<!DOCTYPE svg PUBLIC "-//W3C//DTD SVG 1.1//EN" "http://www.w3.org/Graphics/SVG/1.1/DTD/svg11.dtd">
<svg version="1.1" id="Layer_1" xmlns="http://www.w3.org/2000/svg" xmlns:xlink="http://www.w3.org/1999/xlink" x="0px" y="0px"
	 width="62.5px" height="62.75px" viewBox="0 0 62.5 62.75" enable-background="new 0 0 62.5 62.75" xml:space="preserve">
<path fill-rule="evenodd" clip-rule="evenodd" fill="none" stroke="#4FC2F0" stroke-miterlimit="10" d="M3.767,43.101
	c0.577-1.302,1.267-2.5,2.595-3.211c0.218-0.116,0.377-0.505,0.409-0.785c1.337-11.65,8.843-20.109,20.122-22.66
	c0.159-0.036,0.304-0.126,0.444-0.186c0.039-4.153,1.698-6.333,4.744-6.266c3.028,0.067,4.717,2.359,4.542,6.255
	c1.167,0.332,2.387,0.584,3.535,1.021c9.533,3.63,15.24,10.418,16.835,20.555c0.174,1.104,0.362,2.019,1.474,2.766
	c0.832,0.559,1.194,1.816,1.767,2.762c0,0.502,0,1.004,0,1.506c-1.248,3.129-2.55,4.001-5.975,4.001
	c-14.844,0.001-29.687,0.001-44.531,0c-3.438,0-4.699-0.847-5.961-4.001C3.767,44.271,3.767,43.687,3.767,43.101z M53.564,39.296
	c-0.764-10.694-10.237-20.559-23.25-19.801c-10.136,0.59-19.724,10.018-19.843,19.801C24.804,39.296,39.136,39.296,53.564,39.296z
	 M32.126,42.904c-7.478,0-14.956-0.002-22.435,0.002c-0.951,0.001-2.048-0.154-2.313,1.134c-0.169,0.82,0.696,1.265,2.31,1.265
	c14.872,0,29.745,0.002,44.616-0.004c0.949,0,2.051,0.15,2.315-1.137c0.17-0.818-0.696-1.26-2.31-1.26
	C46.915,42.903,39.521,42.904,32.126,42.904z M31.99,16.342c0.516-0.708,1.091-1.153,1.065-1.56
	c-0.026-0.42-0.637-0.803-0.992-1.203c-0.397,0.395-1.032,0.747-1.118,1.201C30.879,15.143,31.483,15.629,31.99,16.342z"/>
</svg>
