<?xml version="1.0" encoding="utf-8"?>
<!-- Generator: Adobe Illustrator 16.0.0, SVG Export Plug-In . SVG Version: 6.00 Build 0)  -->
<!DOCTYPE svg PUBLIC "-//W3C//DTD SVG 1.1//EN" "http://www.w3.org/Graphics/SVG/1.1/DTD/svg11.dtd">
<svg version="1.1" id="Layer_1" xmlns="http://www.w3.org/2000/svg" xmlns:xlink="http://www.w3.org/1999/xlink" x="0px" y="0px"
	 width="62.5px" height="62.75px" viewBox="0 0 62.5 62.75" enable-background="new 0 0 62.5 62.75" xml:space="preserve">
<path fill="#4FC2F0" d="M31.401,1.523c-16.542,0-30,13.458-30,30s13.458,30,30,30s30-13.458,30-30S47.943,1.523,31.401,1.523z
	 M58.46,31.523c0,4.887-1.309,9.471-3.585,13.432l-12.802-7.513c0.975-1.755,1.534-3.77,1.534-5.919
	c0-6.242-4.69-11.381-10.735-12.108V4.506C47.111,5.273,58.46,17.097,58.46,31.523z M29.931,4.506v14.908
	c-6.046,0.727-10.734,5.867-10.734,12.109c0,2.464,0.736,4.753,1.992,6.672L8.802,46.379c-2.815-4.268-4.459-9.372-4.459-14.855
	C4.343,17.097,15.692,5.273,29.931,4.506z M31.401,58.582c-8.38,0-15.883-3.83-20.85-9.831l12.552-8.294
	c2.179,2.024,5.089,3.272,8.298,3.272c3.528,0,6.698-1.507,8.927-3.901l12.947,7.599C48.351,54.181,40.383,58.582,31.401,58.582z"/>
</svg>
