<?xml version="1.0" encoding="utf-8"?>
<!-- Generator: Adobe Illustrator 16.0.0, SVG Export Plug-In . SVG Version: 6.00 Build 0)  -->
<!DOCTYPE svg PUBLIC "-//W3C//DTD SVG 1.1//EN" "http://www.w3.org/Graphics/SVG/1.1/DTD/svg11.dtd">
<svg version="1.1" id="Layer_1" xmlns="http://www.w3.org/2000/svg" xmlns:xlink="http://www.w3.org/1999/xlink" x="0px" y="0px"
	 width="62.5px" height="62.75px" viewBox="0 0 62.5 62.75" enable-background="new 0 0 62.5 62.75" xml:space="preserve">
<g>
	<path fill="none" stroke="#4FC2F0" stroke-miterlimit="10" d="M50.052,30.911v18.906c0,0.876-0.307,1.62-0.919,2.232
		s-1.356,0.919-2.231,0.919H15.39c-0.875,0-1.62-0.307-2.232-0.919c-0.613-0.612-0.919-1.356-0.919-2.232V30.911
		c0-0.875,0.306-1.619,0.919-2.232c0.612-0.612,1.356-0.919,2.232-0.919h1.051v-6.302c0-4.026,1.444-7.483,4.333-10.372
		s6.346-4.333,10.372-4.333s7.484,1.444,10.372,4.333c2.889,2.889,4.333,6.346,4.333,10.372v6.302h1.051
		c0.875,0,1.619,0.307,2.231,0.919C49.745,29.292,50.052,30.036,50.052,30.911z M22.743,27.76h16.806v-6.302
		c0-2.319-0.821-4.3-2.462-5.941c-1.642-1.641-3.622-2.462-5.941-2.462s-4.3,0.821-5.941,2.462s-2.462,3.622-2.462,5.941V27.76z"/>
</g>
</svg>
