<?xml version="1.0" encoding="utf-8"?>
<!-- Generator: Adobe Illustrator 16.0.0, SVG Export Plug-In . SVG Version: 6.00 Build 0)  -->
<!DOCTYPE svg PUBLIC "-//W3C//DTD SVG 1.1//EN" "http://www.w3.org/Graphics/SVG/1.1/DTD/svg11.dtd">
<svg version="1.1" id="Layer_1" xmlns="http://www.w3.org/2000/svg" xmlns:xlink="http://www.w3.org/1999/xlink" x="0px" y="0px"
	 width="612px" height="548.194px" viewBox="0 0 612 548.194" enable-background="new 0 0 612 548.194" xml:space="preserve">
<g>
	<g>
		<g>
			<path fill="#50C5F2" d="M223.27,507.858c-22.095,0-40.072-17.979-40.072-40.072c0-22.097,17.977-40.072,40.072-40.072
				s40.074,17.976,40.074,40.072C263.343,489.879,245.365,507.858,223.27,507.858z M223.27,428.014
				c-21.931,0-39.772,17.84-39.772,39.771c0,21.933,17.842,39.771,39.772,39.771c21.93,0,39.772-17.839,39.772-39.771
				C263.042,445.854,245.199,428.014,223.27,428.014z"/>
		</g>
		<g>
			<path fill="#50C5F2" d="M223.27,498.774c-17.086,0-30.987-13.902-30.987-30.988s13.901-30.988,30.987-30.988
				c17.086,0,30.987,13.902,30.987,30.988S240.356,498.774,223.27,498.774z M223.27,438.294c-16.262,0-29.492,13.23-29.492,29.491
				s13.23,29.494,29.492,29.494s29.491-13.233,29.491-29.494S239.532,438.294,223.27,438.294z"/>
		</g>
		<g>
			<path fill="#50C5F2" d="M223.27,478.793c-6.071,0-11.011-4.935-11.011-11.008c0-6.072,4.939-11.014,11.011-11.014
				s11.011,4.941,11.011,11.014C234.28,473.859,229.341,478.793,223.27,478.793z M223.27,457.074
				c-5.907,0-10.712,4.807-10.712,10.712c0,5.908,4.805,10.713,10.712,10.713c5.906,0,10.711-4.805,10.711-10.713
				C233.98,461.88,229.175,457.074,223.27,457.074z"/>
		</g>
	</g>
	<g>
		<g>
			<path fill="#50C5F2" d="M314.362,507.858c-22.094,0-40.07-17.979-40.07-40.072c0-22.097,17.976-40.072,40.07-40.072
				c22.094,0,40.072,17.976,40.072,40.072C354.435,489.879,336.456,507.858,314.362,507.858z M314.362,428.014
				c-21.93,0-39.771,17.84-39.771,39.771c0,21.933,17.842,39.771,39.771,39.771c21.932,0,39.773-17.839,39.773-39.771
				C354.136,445.854,336.294,428.014,314.362,428.014z"/>
		</g>
		<g>
			<path fill="#50C5F2" d="M314.362,498.774c-17.086,0-30.986-13.902-30.986-30.988s13.899-30.988,30.986-30.988
				c17.086,0,30.985,13.902,30.985,30.988S331.448,498.774,314.362,498.774z M314.362,438.294c-16.261,0-29.491,13.23-29.491,29.491
				s13.23,29.494,29.491,29.494c16.261,0,29.491-13.233,29.491-29.494S330.623,438.294,314.362,438.294z"/>
		</g>
		<g>
			<path fill="#50C5F2" d="M314.362,478.793c-6.07,0-11.011-4.935-11.011-11.008c0-6.072,4.94-11.014,11.011-11.014
				c6.069,0,11.011,4.941,11.011,11.014C325.373,473.859,320.432,478.793,314.362,478.793z M314.362,457.074
				c-5.905,0-10.712,4.807-10.712,10.712c0,5.908,4.807,10.713,10.712,10.713s10.712-4.805,10.712-10.713
				C325.074,461.88,320.268,457.074,314.362,457.074z"/>
		</g>
	</g>
	<g>
		<g>
			<path fill="#50C5F2" d="M409.101,507.858c-22.097,0-40.072-17.979-40.072-40.072c0-22.097,17.976-40.072,40.072-40.072
				c22.094,0,40.069,17.976,40.069,40.072C449.17,489.879,431.194,507.858,409.101,507.858z M409.101,428.014
				c-21.933,0-39.774,17.84-39.774,39.771c0,21.933,17.842,39.771,39.774,39.771c21.929,0,39.771-17.839,39.771-39.771
				C448.871,445.854,431.029,428.014,409.101,428.014z"/>
		</g>
		<g>
			<path fill="#50C5F2" d="M409.101,498.774c-17.087,0-30.988-13.902-30.988-30.988s13.901-30.988,30.988-30.988
				c17.086,0,30.985,13.902,30.985,30.988S426.187,498.774,409.101,498.774z M409.101,438.294c-16.264,0-29.494,13.23-29.494,29.491
				s13.23,29.494,29.494,29.494c16.261,0,29.49-13.233,29.49-29.494S425.361,438.294,409.101,438.294z"/>
		</g>
		<g>
			<path fill="#50C5F2" d="M409.101,478.793c-6.073,0-11.011-4.935-11.011-11.008c0-6.072,4.938-11.014,11.011-11.014
				c6.069,0,11.01,4.941,11.01,11.014C420.11,473.859,415.17,478.793,409.101,478.793z M409.101,457.074
				c-5.908,0-10.713,4.807-10.713,10.712c0,5.908,4.805,10.713,10.713,10.713c5.905,0,10.709-4.805,10.709-10.713
				C419.81,461.88,415.006,457.074,409.101,457.074z"/>
		</g>
	</g>
	<g>
		<path fill="#50C5F2" d="M434.991,308.696H172.732v-7.232l0.465-0.189c0.153-0.062,15.592-6.313,39.034-12.48
			c21.635-5.688,54.72-12.475,89.476-12.475c9.737,0,19.244,0.533,28.258,1.581c0.17,0.017,18.659,1.837,40.672,5.612
			c20.346,3.485,47.954,9.408,63.953,17.795l0.401,0.206V308.696z M174.227,307.202h259.268v-4.779
			c-30.559-15.754-102.958-22.964-103.688-23.036c-8.97-1.043-18.419-1.573-28.099-1.573c-34.596,0-67.546,6.759-89.095,12.431
			c-21.087,5.543-35.649,11.152-38.385,12.229V307.202z"/>
	</g>
	<g>
		<path fill="#50C5F2" d="M262.961,473.499c-22.968,0-40.213-8.699-50.637-16.001c-10.697-7.489-16.611-15.096-17.261-15.954
			c-10.198-8.371-15.618-22.083-18.369-32.121c-2.977-10.868-3.558-19.901-3.565-19.991l-0.001-0.044l0.087-52.018
			c-0.426-9.067,0.789-11.983,1.362-12.843l0.138-3.708c-1.291-2.019-1.752-3.992-1.369-5.86c0.443-2.17,1.904-3.558,2.573-4.094
			v-2.169h260.464v4.74l-2.791-0.198v3.897l-4.395,0.198l-0.189,15.65l2.785,5.167l0.399,12.825l1.801,5.403l-0.003,0.135
			l-1.595,56.814v13.409c1.757,1.768,2.325,6.287,2.387,6.819c1.291,14.533-1.124,25.242-7.171,31.848
			c-5.699,6.229-12.91,6.898-15.748,6.898c-0.527,0-0.873-0.022-0.984-0.034l-50.408-0.396l-95.075,1.595
			C264.592,473.488,263.767,473.499,262.961,473.499z M174.625,389.365c0.034,0.502,0.651,9.234,3.52,19.69
			c2.701,9.842,8.005,23.281,17.937,31.39l0.072,0.056l0.057,0.078c0.057,0.078,5.907,7.957,17.019,15.73
			c10.24,7.16,27.178,15.692,49.731,15.692c0.794,0,1.603-0.006,2.403-0.027l95.1-1.596l50.492,0.396l0.033,0.006
			c0.003,0,0.323,0.027,0.876,0.027c2.641,0,9.346-0.624,14.646-6.413c5.752-6.284,8.035-16.606,6.786-30.684
			c-0.218-1.865-0.984-5.181-2.104-6.054l-0.29-0.226V413.31l1.589-56.707l-1.784-5.359l-0.399-12.691l-2.799-5.203l0.212-17.443
			l4.378-0.197v-4.079l2.791,0.2v-1.64H177.416v1.45l-0.337,0.223c-0.017,0.012-1.834,1.238-2.271,3.41
			c-0.305,1.525,0.127,3.182,1.287,4.921l0.135,0.201l-0.178,4.773l-0.201,0.153c-0.155,0.221-1.588,2.523-1.138,11.998l0.001,0.033
			L174.625,389.365z"/>
	</g>
	<g>
		<path fill="#50C5F2" d="M403.585,352.284c-13.196,0-24.862-15.404-25.364-16.079l-0.017-0.022
			c-2.175-3.179-5.346-6.09-7.587-7.746l0.89-1.198c2.336,1.723,5.641,4.757,7.921,8.085c0.382,0.502,12.41,16.194,25.066,15.441
			l0.033-0.006l26.915-0.396l0.022,1.494l-26.898,0.396C404.24,352.276,403.911,352.284,403.585,352.284z"/>
	</g>
	<g>
		<path fill="#50C5F2" d="M177.491,326.429c-0.764,0-1.415-0.396-1.73-0.687l1.012-1.104c0.004,0.005,0.474,0.418,0.942,0.256
			c0.35-0.122,1.231-0.758,1.805-4.021l0.11-0.613h20.362l161.099,2.989l-0.028,1.494l-161.085-2.989h-19.104
			c-0.548,2.641-1.432,4.136-2.693,4.557C177.946,326.393,177.714,326.429,177.491,326.429z"/>
	</g>
	<g>
		<path fill="#50C5F2" d="M362.941,349.465c-6.396,0-11.6-5.203-11.6-11.6c0-6.396,5.203-11.596,11.6-11.596
			c6.396,0,11.599,5.2,11.599,11.596C374.54,344.262,369.337,349.465,362.941,349.465z M362.941,327.761
			c-5.571,0-10.102,4.534-10.102,10.104c0,5.571,4.53,10.104,10.102,10.104c5.57,0,10.104-4.533,10.104-10.104
			C373.046,332.295,368.512,327.761,362.941,327.761z"/>
	</g>
	<g>
		<path fill="#50C5F2" d="M362.941,346.733c-4.891,0-8.869-3.977-8.869-8.867s3.979-8.866,8.869-8.866s8.869,3.976,8.869,8.866
			S367.832,346.733,362.941,346.733z M362.941,330.494c-4.065,0-7.372,3.308-7.372,7.372c0,4.065,3.307,7.372,7.372,7.372
			s7.372-3.307,7.372-7.372C370.313,333.801,367.007,330.494,362.941,330.494z"/>
	</g>
	<g>
		<path fill="#50C5F2" d="M372.126,331.03l-10.459-4.612l-0.976-4.885l8.934-1.372L372.126,331.03z M362.98,325.364l7.018,3.098
			l-1.52-6.611l-6.017,0.924L362.98,325.364z"/>
	</g>
	<g>
		<path fill="#50C5F2" d="M362.202,322.063l-8.992-57.21l-12.856-81.338l-12.111-77.002c-0.482-2.802-2.376-10.444-5.298-12.02
			l-56.498-32.756l-3.391-11.415c-0.014-0.071-0.323-1.712,0.875-3.236c1.171-1.49,3.313-2.312,6.365-2.441l44.271-6.88h8.15
			l10.626,54.639l-0.076,0.2c-0.017,0.046-1.717,4.622-1.455,7.405l1.19,6.247l28.811,174.061l6.182,39.928l-1.478,0.229
			l-6.179-39.922l-28.808-174.035l-1.202-6.327c-0.278-2.805,1.121-6.942,1.467-7.909l-10.311-53.021h-6.801l-44.243,6.875h-0.045
			c-2.579,0.104-4.408,0.752-5.292,1.874c-0.703,0.892-0.608,1.837-0.585,1.996l3.189,10.736l55.965,32.445
			c4.138,2.229,5.967,12.639,6.042,13.081l12.115,77.013l12.856,81.339l8.991,57.208L362.202,322.063z"/>
	</g>
	<g>
		<path fill="#50C5F2" d="M424.075,347.424c-1.257,0-2.241-1.479-2.241-3.368c0-1.885,0.984-3.362,2.241-3.362
			c1.258,0,2.242,1.478,2.242,3.362C426.317,345.946,425.333,347.424,424.075,347.424z M424.075,341.591
			c-0.638,0-1.347,1.015-1.347,2.465c0,1.455,0.709,2.47,1.347,2.47c0.636,0,1.345-1.015,1.345-2.47
			C425.42,342.606,424.711,341.591,424.075,341.591z"/>
	</g>
	<g>
		<path fill="#50C5F2" d="M412.176,347.424c-1.258,0-2.242-1.479-2.242-3.368c0-1.885,0.984-3.362,2.242-3.362
			c1.257,0,2.244,1.478,2.244,3.362C414.42,345.946,413.433,347.424,412.176,347.424z M412.176,341.591
			c-0.636,0-1.344,1.015-1.344,2.465c0,1.455,0.708,2.47,1.344,2.47c0.639,0,1.347-1.015,1.347-2.47
			C413.522,342.606,412.814,341.591,412.176,341.591z"/>
	</g>
	<g>
		<path fill="#50C5F2" d="M389.479,340.135c-1.946,0-3.533-1.586-3.533-3.535c0-1.946,1.587-3.532,3.533-3.532
			c1.949,0,3.535,1.586,3.535,3.532C393.015,338.549,391.429,340.135,389.479,340.135z M389.479,333.962
			c-1.453,0-2.635,1.186-2.635,2.638c0,1.455,1.182,2.638,2.635,2.638c1.455,0,2.638-1.183,2.638-2.638
			C392.117,335.148,390.935,333.962,389.479,333.962z"/>
	</g>
	<g>
		<path fill="#50C5F2" d="M409.945,331.275c-3.502,0-6.354-3.396-6.354-7.567c0-4.174,2.853-7.57,6.354-7.57
			c3.505,0,6.356,3.396,6.356,7.57C416.302,327.878,413.45,331.275,409.945,331.275z M409.945,317.038
			c-3.009,0-5.457,2.989-5.457,6.67c0,3.675,2.448,6.67,5.457,6.67c3.008,0,5.459-2.995,5.459-6.67
			C415.404,320.027,412.953,317.038,409.945,317.038z"/>
	</g>
	<g>
		<path fill="#50C5F2" d="M409.089,327.874c-1.951,0-3.538-1.868-3.538-4.172c0-2.297,1.587-4.171,3.538-4.171
			c1.949,0,3.535,1.874,3.535,4.171C412.624,326.005,411.038,327.874,409.089,327.874z M409.089,320.428
			c-1.455,0-2.641,1.467-2.641,3.273s1.186,3.273,2.641,3.273s2.641-1.467,2.641-3.273S410.544,320.428,409.089,320.428z"/>
	</g>
	<ellipse fill="#50C5F2" cx="409.087" cy="323.702" rx="1.942" ry="2.343"/>
	<g>
		<path fill="#50C5F2" d="M419.963,331.275c-2.222,0-3.962-3.419-3.962-7.776c0-4.358,1.74-7.776,3.962-7.776
			c2.223,0,3.962,3.418,3.962,7.776C423.925,327.856,422.186,331.275,419.963,331.275z M419.963,316.62
			c-1.48,0-3.064,2.766-3.064,6.879c0,4.118,1.584,6.879,3.064,6.879s3.067-2.761,3.067-6.879
			C423.03,319.385,421.443,316.62,419.963,316.62z"/>
	</g>
	<path fill="#50C5F2" d="M422.049,323.499c0,2.4-0.932,4.353-2.086,4.353c-1.151,0-2.085-1.952-2.085-4.353s0.934-4.353,2.085-4.353
		C421.117,319.146,422.049,321.098,422.049,323.499z"/>
	<g>
		<polygon fill="#50C5F2" points="400.301,350.418 398.649,311.239 432.15,311.239 432.15,315.577 401.407,314.981 401.945,350.408 
			401.647,350.413 401.104,314.673 431.85,315.27 431.85,311.534 398.962,311.534 400.602,350.408 		"/>
	</g>
	<g>
		<path fill="#50C5F2" d="M428.512,415.752c-0.104,0-0.206-0.006-0.31-0.018c-1.852-0.161-2.914-1.745-2.958-1.812l-0.054-0.101
			l-5.899-12.834c-2.005-3.589-18.433-3.488-28.342-2.585l-0.042,0.006l-106.775-2.393c-42.93,2.069-109.674-5.811-110.344-5.886
			l0.177-1.486c0.667,0.078,67.316,7.941,110.122,5.878h0.028h0.025l106.716,2.39c0.583-0.054,6.901-0.595,13.479-0.521
			c9.589,0.1,14.914,1.38,16.283,3.903l0.022,0.044l5.88,12.799c0.137,0.184,0.817,1.028,1.824,1.109
			c0.858,0.072,1.787-0.416,2.763-1.45l1.088,1.026C430.984,415.105,429.747,415.752,428.512,415.752z"/>
	</g>
	<g>
		<path fill="#50C5F2" d="M410.645,417.163c-6.198,0-10.882-1.55-14.382-4.689c-3.242-2.916-9.259-14.061-9.516-14.538l1.316-0.708
			c0.063,0.114,6.147,11.393,9.201,14.134c5.052,4.536,12.953,5.465,24.859,2.913c0.449-0.1,1.793-1.237,2.766-2.247l1.076,1.043
			c-0.546,0.563-2.417,2.426-3.527,2.665C418.003,416.683,414.091,417.163,410.645,417.163z"/>
	</g>
	<g>
		<path fill="#50C5F2" d="M397.568,408.375c-2.281,0-4.136-2.077-4.136-4.631c0-2.558,1.854-4.638,4.136-4.638
			c2.283,0,4.138,2.08,4.138,4.638C401.706,406.297,399.852,408.375,397.568,408.375z M397.568,400.004
			c-1.785,0-3.237,1.676-3.237,3.739c0,2.06,1.452,3.733,3.237,3.733c1.787,0,3.239-1.674,3.239-3.733
			C400.808,401.68,399.355,400.004,397.568,400.004z"/>
	</g>
	<path fill="#50C5F2" d="M399.916,403.744c0,1.469-1.052,2.662-2.348,2.662c-1.294,0-2.345-1.193-2.345-2.662
		c0-1.476,1.051-2.666,2.345-2.666C398.864,401.078,399.916,402.268,399.916,403.744z"/>
	<path fill="#50C5F2" d="M413.377,403.744c0,1.469-1.051,2.662-2.348,2.662c-1.294,0-2.345-1.193-2.345-2.662
		c0-1.476,1.051-2.666,2.345-2.666C412.326,401.078,413.377,402.268,413.377,403.744z"/>
	<path fill="#50C5F2" d="M413.377,409.069c0,1.469-1.051,2.66-2.348,2.66c-1.294,0-2.345-1.191-2.345-2.66
		c0-1.473,1.051-2.663,2.345-2.663C412.326,406.406,413.377,407.596,413.377,409.069z"/>
	<ellipse fill="#50C5F2" cx="415.403" cy="407.928" rx="2.346" ry="2.663"/>
	<g>
		<path fill="#50C5F2" d="M323.702,446.255l-108.4-0.006c-0.662-0.198-16.215-4.896-16.554-12.667l-5.855-12.834
			c-0.024-0.05-0.598-1.327,0.378-2.86c1.453-2.275,6.313-4.991,21.224-4.991c3.555,0,7.567,0.156,11.925,0.463l72.66,1.494
			c0.195,0.028,17.579,2.85,23.981,13.755c2.919,4.974,3.147,10.876,0.678,17.546L323.702,446.255z M215.368,445.954h108.125
			c2.401-6.541,2.167-12.323-0.688-17.191c-6.329-10.785-23.577-13.584-23.75-13.612l-72.648-1.489
			c-4.358-0.31-8.363-0.468-11.911-0.468c-14.759,0-19.548,2.638-20.966,4.846c-0.893,1.394-0.385,2.537-0.363,2.587l5.879,12.885
			l0.001,0.03C199.333,440.997,214.708,445.756,215.368,445.954z"/>
	</g>
	<g>
		<rect x="199.247" y="321.008" fill="#50C5F2" width="1.494" height="70.091"/>
	</g>
	<g>
		<path fill="#50C5F2" d="M182.45,314.496c-0.906,0-1.644-0.739-1.644-1.648c0-0.906,0.737-1.642,1.644-1.642
			c0.908,0,1.645,0.735,1.645,1.642C184.095,313.756,183.358,314.496,182.45,314.496z M182.45,312.103
			c-0.411,0-0.747,0.335-0.747,0.744c0,0.413,0.336,0.75,0.747,0.75c0.413,0,0.747-0.337,0.747-0.75
			C183.197,312.438,182.863,312.103,182.45,312.103z"/>
	</g>
	<g>
		<path fill="#50C5F2" d="M186.239,314.496c-0.907,0-1.645-0.739-1.645-1.648c0-0.906,0.738-1.642,1.645-1.642
			c0.906,0,1.644,0.735,1.644,1.642C187.883,313.756,187.146,314.496,186.239,314.496z M186.239,312.103
			c-0.413,0-0.75,0.335-0.75,0.744c0,0.413,0.337,0.75,0.75,0.75c0.411,0,0.746-0.337,0.746-0.75
			C186.985,312.438,186.65,312.103,186.239,312.103z"/>
	</g>
	<g>
		<path fill="#50C5F2" d="M190.026,314.496c-0.908,0-1.645-0.739-1.645-1.648c0-0.906,0.737-1.642,1.645-1.642
			c0.906,0,1.645,0.735,1.645,1.642C191.671,313.756,190.932,314.496,190.026,314.496z M190.026,312.103
			c-0.413,0-0.748,0.335-0.748,0.744c0,0.413,0.335,0.75,0.748,0.75s0.749-0.337,0.749-0.75
			C190.774,312.438,190.438,312.103,190.026,312.103z"/>
	</g>
	<g>
		<path fill="#50C5F2" d="M193.813,314.496c-0.907,0-1.645-0.739-1.645-1.648c0-0.906,0.738-1.642,1.645-1.642
			c0.906,0,1.645,0.735,1.645,1.642C195.458,313.756,194.72,314.496,193.813,314.496z M193.813,312.103
			c-0.413,0-0.747,0.335-0.747,0.744c0,0.413,0.334,0.75,0.747,0.75c0.411,0,0.747-0.337,0.747-0.75
			C194.561,312.438,194.225,312.103,193.813,312.103z"/>
	</g>
	<g>
		<path fill="#50C5F2" d="M204.971,317.869c-2.112,0-3.83-1.717-3.83-3.831c0-2.113,1.717-3.83,3.83-3.83
			c2.11,0,3.83,1.717,3.83,3.83C208.8,316.152,207.081,317.869,204.971,317.869z M204.971,311.105c-1.619,0-2.933,1.315-2.933,2.933
			s1.314,2.934,2.933,2.934c1.617,0,2.933-1.316,2.933-2.934S206.588,311.105,204.971,311.105z"/>
	</g>
</g>
</svg>
