<?xml version="1.0" encoding="utf-8"?>
<!-- Generator: Adobe Illustrator 16.0.0, SVG Export Plug-In . SVG Version: 6.00 Build 0)  -->
<!DOCTYPE svg PUBLIC "-//W3C//DTD SVG 1.1//EN" "http://www.w3.org/Graphics/SVG/1.1/DTD/svg11.dtd">
<svg version="1.1" id="Layer_1" xmlns="http://www.w3.org/2000/svg" xmlns:xlink="http://www.w3.org/1999/xlink" x="0px" y="0px"
	 width="23px" height="23px" viewBox="0 0 23 23" enable-background="new 0 0 23 23" xml:space="preserve">
<g>
	<g>
		<polygon fill="#4FC2F0" points="7.334,18.188 1.743,14.952 3.285,12.292 7.125,14.513 15.62,5.844 17.82,7.997 8.024,17.994 
			7.804,18.37 		"/>
		<path fill="#FFFFFF" d="M15.627,6.551l1.485,1.454l-9.489,9.684l-0.04,0.067L2.427,14.77l1.041-1.795L7.21,15.14L15.627,6.551
			 M15.613,5.137l-0.699,0.714l-7.875,8.035L3.968,12.11l-0.865-0.501l-0.501,0.864l-1.041,1.795L1.06,15.134l0.866,0.501
			l5.158,2.985l0.86,0.498l0.48-0.818l9.402-9.596l0.701-0.714l-0.716-0.7l-1.485-1.454L15.613,5.137L15.613,5.137z"/>
	</g>
	<g>
		<polygon fill="#4FC2F0" points="11.903,18.188 6.312,14.952 7.854,12.292 11.693,14.513 20.19,5.844 22.388,7.997 12.593,17.994 
			12.373,18.37 		"/>
		<path fill="#FFFFFF" d="M20.197,6.551l1.484,1.454l-9.488,9.684l-0.04,0.067L6.996,14.77l1.041-1.795l3.743,2.165L20.197,6.551
			 M20.182,5.137l-0.699,0.714l-7.875,8.035L8.537,12.11l-0.865-0.501l-0.501,0.864L6.13,14.268l-0.502,0.866l0.866,0.501
			l5.158,2.985l0.86,0.498l0.48-0.818l9.402-9.596l0.7-0.714l-0.715-0.7l-1.484-1.454L20.182,5.137L20.182,5.137z"/>
	</g>
</g>
</svg>
